# xmcd
#
# Track frame offsets:
#	150
#	13224
#	27618
#	40446
#	50686
#	63802
#	76797
#	88293
#	101166
#	113852
#	125342
#	138083
#
# Disc length: 2016 seconds
#
# Revision: 0
# Processed by: cddbd v1.5.2PL0 Copyright (c) Steve Scherf et al.
# Submitted via: EasyCDDAExtractor 11.5.0.1
#
DISCID=a307de0c
DTITLE=Slim Whitman - Legends In Music Cd2-2
DYEAR=2007
DGENRE=Country
TTITLE0=Blue Eyes Crying In The Rain
TTITLE1=Danny Boy
TTITLE2=Secret Love
TTITLE3=I'll Never Stop Loving You
TTITLE4=Birmingham Jail
TTITLE5=China Doll
TTITLE6=How Can I Tell You
TTITLE7=Stairway To Heaven
TTITLE8=Restless Heart
TTITLE9=I Hate To See You Cry
TTITLE10=North Wind
TTITLE11=Love Song Of The Waterfall
EXTD=
EXTT0=
EXTT1=
EXTT2=
EXTT3=
EXTT4=
EXTT5=
EXTT6=
EXTT7=
EXTT8=
EXTT9=
EXTT10=
EXTT11=
PLAYORDER=
